<svg id="svg" version="1.1" width="1085" height="1085" xmlns="http://www.w3.org/2000/svg" xmlns:xlink="http://www.w3.org/1999/xlink" ><g id="svgg"><path id="path0" d="M59.355 83.050 C 36.543 89.995,29.176 127.728,36.881 198.157 C 38.177 210.012,38.115 209.699,39.242 209.982 C 42.013 210.677,42.155 210.033,41.102 201.557 C 35.945 160.020,36.767 125.860,43.388 106.544 C 54.309 74.687,83.323 80.139,129.585 122.743 C 134.095 126.896,134.444 127.107,135.692 126.439 C 137.326 125.564,136.650 123.865,133.548 121.051 C 109.141 98.911,92.701 87.956,77.051 83.405 C 72.327 82.031,63.297 81.851,59.355 83.050 M330.538 82.964 C 315.271 85.364,296.417 98.483,272.166 123.580 C 267.265 128.652,266.621 129.699,267.724 130.802 C 268.908 131.987,270.031 131.330,274.320 126.941 C 327.744 72.280,355.108 72.988,362.183 129.217 C 364.357 146.488,364.223 176.658,361.852 203.783 C 361.278 210.347,361.389 210.876,363.339 210.876 C 365.174 210.876,365.226 210.636,366.061 198.341 C 371.706 115.284,360.314 78.284,330.538 82.964 M328.874 100.457 C 320.046 102.459,307.531 112.534,294.080 128.467 C 287.539 136.214,287.044 137.185,289.071 138.270 C 290.295 138.924,291.080 138.354,294.065 134.638 C 315.194 108.344,331.741 98.528,340.258 107.233 C 348.323 115.475,351.609 142.273,349.124 179.539 C 348.274 192.292,348.328 193.995,349.593 194.442 C 351.681 195.178,351.946 194.361,352.594 185.191 C 356.939 123.731,349.137 95.862,328.874 100.457 M62.713 103.636 C 50.787 108.351,47.656 131.343,53.280 172.903 C 54.390 181.107,54.485 181.382,56.200 181.382 C 58.219 181.382,58.375 180.688,57.537 175.409 C 53.633 150.794,53.223 128.622,56.476 117.994 C 62.087 99.658,76.915 103.132,104.576 129.262 C 109.821 134.216,110.889 134.862,112.000 133.751 C 113.052 132.699,112.415 131.712,107.742 127.154 C 87.811 107.717,72.551 99.747,62.713 103.636 M290.229 242.596 C 271.748 245.913,264.044 268.664,276.753 282.391 C 289.681 296.355,313.278 290.392,317.583 272.074 C 321.556 255.166,307.085 239.571,290.229 242.596 M98.817 243.489 C 83.036 246.485,74.745 265.120,82.965 279.120 C 92.434 295.247,116.732 294.581,124.921 277.971 C 133.898 259.760,118.720 239.710,98.817 243.489 M189.926 265.922 C 188.549 267.388,188.891 268.261,192.794 273.243 L 196.454 277.915 195.532 279.766 C 193.193 284.459,187.431 287.527,180.914 287.551 C 178.816 287.559,177.967 288.638,178.735 290.323 C 179.123 291.175,179.343 291.244,181.651 291.238 C 188.753 291.220,195.769 287.776,198.574 282.933 C 198.973 282.244,199.029 282.262,199.837 283.318 C 203.558 288.184,207.564 290.300,213.076 290.313 L 216.935 290.323 217.290 289.320 C 217.869 287.689,216.793 286.820,214.195 286.820 C 209.707 286.820,205.742 284.675,202.761 280.635 C 200.479 277.542,200.334 278.207,204.433 272.995 C 208.186 268.224,208.545 267.254,207.073 265.871 C 205.706 264.586,191.140 264.630,189.926 265.922 M366.636 287.232 C 357.549 288.553,344.091 296.596,345.279 299.995 C 345.941 301.887,347.247 301.576,350.879 298.662 C 360.486 290.954,370.972 288.856,384.153 292.005 C 387.597 292.828,388.753 292.736,389.046 291.617 C 389.453 290.059,388.934 289.419,386.777 288.820 C 385.635 288.504,384.455 288.163,384.155 288.064 C 381.060 287.043,371.168 286.573,366.636 287.232 M19.724 289.576 C 13.750 290.850,12.010 291.573,11.863 292.843 C 11.584 295.249,12.678 295.364,19.171 293.608 C 30.804 290.463,42.751 293.079,51.120 300.604 C 55.254 304.320,57.544 301.625,53.517 297.784 C 45.096 289.751,32.846 286.776,19.724 289.576 M32.520 307.126 C 25.757 308.169,15.115 314.435,15.115 317.374 C 15.115 319.833,17.040 319.874,19.845 317.475 C 28.355 310.198,39.275 308.716,50.186 313.359 C 53.252 314.664,53.857 314.716,54.733 313.748 C 57.797 310.362,42.026 305.660,32.520 307.126 M355.926 307.242 C 348.235 308.712,345.587 310.195,346.616 312.453 C 347.156 313.639,348.066 313.580,352.811 312.055 C 363.059 308.761,374.934 311.633,383.153 319.393 C 384.832 320.980,387.097 320.564,387.097 318.669 C 387.097 316.236,377.211 309.649,370.807 307.815 C 367.331 306.819,359.678 306.525,355.926 307.242 " stroke="none" fill="#000000" fill-rule="evenodd"></path></g></svg>